<svg width="20" height="20" viewBox="0 0 20 20" fill="none" xmlns="http://www.w3.org/2000/svg"><g clip-path="url(#a)"><rect width="20" height="20" rx="10" fill="#fff"/><path d="m7.867 5 .442-.441a.612.612 0 0 1 .406-.184h2.535c.164 0 .324.066.441.184l.442.441h1.617c.344 0 .625.281.625.625a.627.627 0 0 1-.625.625H6.215c-.309 0-.625-.281-.625-.625S5.906 5 6.215 5h1.652Zm5.883 2.5-.531 6.355A1.247 1.247 0 0 1 11.977 15H8.023c-.648 0-1.191-.5-1.242-1.145L6.25 7.5h7.5ZM20 10c0 5.523-4.477 10-10 10S0 15.523 0 10 4.477 0 10 0s10 4.477 10 10ZM10 1.875A8.124 8.124 0 0 0 1.875 10 8.124 8.124 0 0 0 10 18.125 8.124 8.124 0 0 0 18.125 10 8.124 8.124 0 0 0 10 1.875Z" fill="#8FA0AB"/></g><defs><clipPath id="a"><rect width="20" height="20" rx="10" fill="#fff"/></clipPath></defs></svg>
