<svg width="16" height="16" viewBox="0 0 16 16" fill="none" xmlns="http://www.w3.org/2000/svg">
<g clip-path="url(#clip0_2302_6071)">
<path d="M1.99995 6.00276C1.99995 5.74614 2.09761 5.48939 2.29292 5.29382C2.68355 4.90206 3.31636 4.90206 3.70698 5.29382L7.99995 9.60072L12.2937 5.29445C12.6843 4.90269 13.3171 4.90269 13.7078 5.29445C14.0984 5.68621 14.0984 6.32087 13.7078 6.71263L8.70776 11.7272C8.31714 12.119 7.68433 12.119 7.2937 11.7272L2.2937 6.71263C2.09683 6.51675 1.99995 6.25976 1.99995 6.00276Z" fill="#0C3148"/>
<path opacity="0.4" d="M7 11.0507L7 1.94926C7 1.42506 7.44687 1 8 1C8.55312 1 9 1.42506 9 1.94926L9 11.0507L8 12L7 11.0507Z" fill="#0C3148"/>
<path d="M12.6154 15H2.99995C2.44615 15 1.99708 14.5531 1.99708 14C1.99708 13.4469 2.44615 13 2.99995 13H12.6154L13.6183 14L12.6154 15Z" fill="#0C3148"/>
<path d="M3.00325 13L12.6187 13C13.1725 13 13.6216 13.4469 13.6216 14C13.6216 14.5531 13.1725 15 12.6187 15L3.00325 15L2.00033 14L3.00325 13Z" fill="#0C3148"/>
</g>
<defs>
<clipPath id="clip0_2302_6071">
<rect width="14.0408" height="16" fill="white" transform="translate(16 0.979492) rotate(90)"/>
</clipPath>
</defs>
</svg>
