<svg width="14" height="14" viewBox="0 0 14 14" fill="none" xmlns="http://www.w3.org/2000/svg">
<g clip-path="url(#clip0_511_14977)">
<path d="M12.3019 1.09278L10.9757 2.41978C9.91205 1.45454 8.51478 0.875127 6.99994 0.875127C4.41596 0.875127 2.14889 2.52505 1.35565 4.98216C1.20695 5.44181 1.45947 5.93591 1.9192 6.08357C2.38322 6.23396 2.8724 5.97933 3.02115 5.52056C3.57924 3.78724 5.17885 2.62513 6.99994 2.62513C8.03791 2.62513 8.99604 3.01286 9.73979 3.65872L8.50658 4.86732C8.06908 5.32669 8.389 6.10872 9.03432 6.12513H13.0511C13.3355 6.11692 13.5624 5.88724 13.5624 5.60286V1.6145C13.5624 0.956885 12.7667 0.627666 12.3019 1.09278Z" fill="#EFF9F7"/>
<path opacity="0.4" d="M12.6437 9.01797C11.8508 11.4762 9.58125 13.125 6.97539 13.125C5.46027 13.125 4.06328 12.5456 2.99961 11.5804L1.67344 12.9073C1.23238 13.3711 0.4375 13.043 0.4375 12.3621V8.39727C0.4375 8.11289 0.665 7.8832 0.947734 7.875H4.96453C5.60902 7.89081 5.92867 8.67207 5.46848 9.13281L4.26043 10.3414C5.00391 10.9867 5.96094 11.375 7 11.375C8.82055 11.375 10.4207 10.2121 10.9785 8.48203C11.1268 8.0232 11.6173 7.77027 12.0805 7.91902C12.5398 8.0418 12.7941 8.55859 12.6437 9.01797Z" fill="#EFF9F7"/>
</g>
<defs>
<clipPath id="clip0_511_14977">
<rect width="14" height="14" fill="white"/>
</clipPath>
</defs>
</svg>
