<svg width="20" height="20" viewBox="0 0 20 20" fill="none" xmlns="http://www.w3.org/2000/svg">
<g clip-path="url(#clip0_747_7239)">
<path d="M10.0001 12.5C10.5196 12.5 10.9376 12.082 10.9376 11.5625V6.5625C10.9376 6.04492 10.5177 5.625 10.0353 5.625C9.55283 5.625 9.0626 6.04688 9.0626 6.5625V11.5625C9.0626 12.082 9.48447 12.5 10.0001 12.5ZM10.0001 13.793C9.32197 13.793 8.77197 14.343 8.77197 15.0211C8.77354 15.6992 9.32041 16.25 10.0001 16.25C10.6798 16.25 11.2282 15.7 11.2282 15.0219C11.2267 14.3438 10.6798 13.793 10.0001 13.793Z" fill="#F0A10B"/>
<path opacity="0.4" d="M19.7775 16.2891L11.4454 2.07031C10.8075 0.976562 9.19777 0.976562 8.55558 2.07031L0.227455 16.2891C-0.41356 17.3789 0.384838 18.75 1.66964 18.75H18.3337C19.6134 18.75 20.4142 17.3828 19.7775 16.2891ZM9.06261 6.5625C9.06261 6.04492 9.48253 5.625 10.0001 5.625C10.5177 5.625 10.9376 6.04688 10.9376 6.5625V11.5625C10.9376 12.0801 10.5177 12.5 10.0353 12.5C9.55285 12.5 9.06261 12.082 9.06261 11.5625V6.5625ZM10.0001 16.25C9.32199 16.25 8.77199 15.7 8.77199 15.0219C8.77199 14.3438 9.3216 13.7937 10.0001 13.7937C10.6786 13.7937 11.2282 14.3438 11.2282 15.0219C11.2267 15.6992 10.6798 16.25 10.0001 16.25Z" fill="#F0A10B"/>
</g>
<defs>
<clipPath id="clip0_747_7239">
<rect width="20" height="20" fill="white"/>
</clipPath>
</defs>
</svg>
