<svg width="14" height="16" viewBox="0 0 14 16" fill="none" xmlns="http://www.w3.org/2000/svg"><g clip-path="url(#a)" fill="#EFF9F7"><path d="M13.706 5.294a.998.998 0 0 1 0 1.412l-8 8a.998.998 0 0 1-1.412 0l-4.001-4a1 1 0 0 1 1.414-1.412l3.265 3.29 7.322-7.29a.998.998 0 0 1 1.412 0Z"/><path opacity=".4" d="M10.706 1.293a1 1 0 0 1 0 1.414l-5 5a.998.998 0 0 1-1.412 0l-2.501-2.5a.998.998 0 1 1 1.413-1.413l1.766 1.79 4.322-4.291a.998.998 0 0 1 1.412 0Z"/></g><defs><clipPath id="a"><path fill="#fff" d="M0 0h14v16H0z"/></clipPath></defs></svg>
